<svg xmlns="http://www.w3.org/2000/svg" xmlns:xlink="http://www.w3.org/1999/xlink" width="2000" zoomAndPan="magnify" viewBox="0 0 1500 1499.999933" height="2000" preserveAspectRatio="xMidYMid meet" version="1.0"><defs><g/><clipPath id="524e5d37be"><path d="M 750 0 C 335.785156 0 0 335.785156 0 750 C 0 1164.214844 335.785156 1500 750 1500 C 1164.214844 1500 1500 1164.214844 1500 750 C 1500 335.785156 1164.214844 0 750 0 Z M 750 0 " clip-rule="nonzero"/></clipPath><clipPath id="ceb5a1f565"><path d="M 0 0 L 1500 0 L 1500 1500 L 0 1500 Z M 0 0 " clip-rule="nonzero"/></clipPath><clipPath id="d8604c180a"><path d="M 750 0 C 335.785156 0 0 335.785156 0 750 C 0 1164.214844 335.785156 1500 750 1500 C 1164.214844 1500 1500 1164.214844 1500 750 C 1500 335.785156 1164.214844 0 750 0 Z M 750 0 " clip-rule="nonzero"/></clipPath><clipPath id="855610c400"><rect x="0" width="1500" y="0" height="1500"/></clipPath><clipPath id="83f8f876fc"><path d="M 150 228.75 L 1249 228.75 L 1249 1186.5 L 150 1186.5 Z M 150 228.75 " clip-rule="nonzero"/></clipPath><clipPath id="82ec0f7d7b"><path d="M 0.359375 1 L 0.839844 1 L 0.839844 1.839844 L 0.359375 1.839844 Z M 0.359375 1 " clip-rule="nonzero"/></clipPath><clipPath id="a23482da6b"><rect x="0" width="1" y="0" height="2"/></clipPath></defs><g clip-path="url(#524e5d37be)"><g transform="matrix(1, 0, 0, 1, 0, 0.000000000000112861)"><g clip-path="url(#855610c400)"><g clip-path="url(#ceb5a1f565)"><g clip-path="url(#d8604c180a)"><rect x="-330" width="2160" fill="#6366f1" height="2159.999904" y="-329.999985" fill-opacity="1"/></g></g></g></g></g><g clip-path="url(#83f8f876fc)"><path fill="#ffffff" d="M 706.496094 667.25 C 642.945312 823.234375 579.394531 979.222656 515.84375 1135.210938 C 503.136719 1166.984375 473.671875 1186.628906 439.585938 1186.628906 L 406.652344 1186.628906 C 378.34375 1186.628906 353.503906 1173.339844 337.902344 1149.652344 C 328.660156 1135.789062 324.039062 1120.191406 324.039062 1104.589844 L 411.851562 1104.589844 C 424.5625 1104.589844 434.960938 1094.191406 434.960938 1081.480469 C 434.960938 1068.773438 424.5625 1058.371094 411.851562 1058.371094 L 295.730469 1058.371094 C 283.019531 1058.371094 272.621094 1047.972656 272.621094 1035.261719 C 272.621094 1022.554688 283.019531 1012.152344 295.730469 1012.152344 L 514.113281 1012.152344 C 526.820312 1012.152344 537.222656 1001.753906 537.222656 989.042969 C 537.222656 976.335938 526.820312 965.933594 514.113281 965.933594 L 318.261719 965.933594 C 305.550781 965.933594 295.152344 955.535156 295.152344 942.824219 C 295.152344 930.117188 305.550781 919.714844 318.261719 919.714844 L 388.167969 919.714844 C 392.789062 919.714844 396.253906 917.40625 397.988281 913.363281 L 404.34375 898.917969 C 410.699219 883.320312 425.71875 873.5 442.472656 873.5 L 467.894531 873.5 C 480.601562 873.5 491.003906 863.097656 491.003906 850.390625 C 491.003906 837.679688 480.601562 827.28125 467.894531 827.28125 L 419.941406 827.28125 C 407.230469 827.28125 396.832031 816.878906 396.832031 804.171875 C 396.832031 791.460938 407.230469 781.0625 419.941406 781.0625 L 547.042969 781.0625 C 559.753906 781.0625 570.152344 770.660156 570.152344 757.953125 C 570.152344 745.242188 559.753906 734.84375 547.042969 734.84375 L 437.273438 734.84375 C 424.5625 734.84375 414.164062 724.445312 414.164062 711.734375 C 414.164062 699.023438 424.5625 688.625 437.273438 688.625 L 519.3125 688.625 C 532.023438 688.625 542.421875 678.226562 542.421875 665.515625 C 542.421875 652.804688 532.023438 642.40625 519.3125 642.40625 L 512.957031 642.40625 C 501.402344 641.25 492.734375 631.429688 492.734375 619.296875 C 492.734375 606.585938 503.136719 596.1875 515.84375 596.1875 L 717.472656 596.1875 C 730.183594 596.1875 740.582031 585.789062 740.582031 573.078125 C 740.582031 560.367188 730.183594 549.96875 717.472656 549.96875 L 510.644531 549.96875 C 497.933594 549.96875 487.535156 539.570312 487.535156 526.859375 C 487.535156 514.148438 497.933594 503.75 510.644531 503.75 L 564.375 503.75 C 568.996094 503.75 572.460938 501.4375 574.195312 497.394531 L 580.550781 482.953125 C 586.90625 467.351562 601.347656 457.53125 618.679688 457.53125 L 835.90625 457.53125 C 848.617188 457.53125 859.015625 447.132812 859.015625 434.421875 C 859.015625 422.867188 850.351562 413.046875 838.796875 411.3125 C 838.21875 411.3125 837.0625 411.3125 836.484375 411.3125 L 549.929688 411.3125 C 537.222656 411.3125 526.820312 400.914062 526.820312 388.203125 C 526.820312 375.492188 537.222656 365.09375 549.929688 365.09375 L 662.589844 365.09375 C 675.300781 365.09375 685.699219 354.695312 685.699219 341.984375 C 685.699219 330.429688 677.609375 321.1875 666.632812 319.453125 L 625.035156 319.453125 C 612.328125 319.453125 601.925781 309.054688 601.925781 296.34375 C 601.925781 283.632812 612.328125 273.234375 625.035156 273.234375 L 670.097656 273.234375 C 684.542969 245.503906 712.273438 228.75 744.050781 228.75 L 827.820312 228.75 C 861.90625 228.75 890.792969 247.816406 904.082031 279.011719 L 1241.476562 1071.660156 C 1252.453125 1098.234375 1250.140625 1125.96875 1234.542969 1149.652344 C 1218.945312 1173.339844 1194.101562 1186.628906 1165.792969 1186.628906 L 1126.507812 1186.628906 C 1092.421875 1186.628906 1062.957031 1166.984375 1050.246094 1135.210938 C 986.695312 979.222656 923.144531 823.234375 859.59375 667.25 C 846.886719 635.472656 817.421875 615.828125 783.335938 615.828125 C 748.671875 615.828125 719.207031 635.472656 706.496094 667.25 Z M 173.25 781.0625 L 192.894531 781.0625 C 205.601562 781.0625 216.003906 791.460938 216.003906 804.171875 C 216.003906 816.878906 205.601562 827.28125 192.894531 827.28125 L 173.25 827.28125 C 160.539062 827.28125 150.140625 816.878906 150.140625 804.171875 C 150.140625 791.460938 160.539062 781.0625 173.25 781.0625 Z M 257.597656 781.0625 L 362.746094 781.0625 C 375.457031 781.0625 385.855469 791.460938 385.855469 804.171875 C 385.855469 816.878906 375.457031 827.28125 362.746094 827.28125 L 257.597656 827.28125 C 244.890625 827.28125 234.488281 816.878906 234.488281 804.171875 C 234.488281 791.460938 244.890625 781.0625 257.597656 781.0625 Z M 339.058594 688.625 L 375.457031 688.625 C 388.167969 688.625 398.566406 699.023438 398.566406 711.734375 C 398.566406 724.445312 388.167969 734.84375 375.457031 734.84375 L 338.480469 734.84375 C 325.769531 734.84375 315.371094 724.445312 315.371094 711.734375 C 315.949219 699.023438 326.347656 688.625 339.058594 688.625 Z M 533.175781 273.234375 L 567.261719 273.234375 C 579.972656 273.234375 590.371094 283.632812 590.371094 296.34375 C 590.371094 309.054688 579.972656 319.453125 567.261719 319.453125 L 533.175781 319.453125 C 520.46875 319.453125 510.066406 309.054688 510.066406 296.34375 C 510.066406 283.632812 520.46875 273.234375 533.175781 273.234375 Z M 431.496094 365.671875 L 480.601562 365.671875 C 493.3125 365.671875 503.710938 376.070312 503.710938 388.78125 C 503.710938 401.492188 493.3125 411.890625 480.601562 411.890625 L 431.496094 411.890625 C 418.785156 411.890625 408.386719 401.492188 408.386719 388.78125 C 408.386719 376.070312 418.785156 365.671875 431.496094 365.671875 Z M 368.523438 596.1875 L 434.386719 596.1875 C 447.09375 596.1875 457.492188 606.585938 457.492188 619.296875 C 457.492188 632.007812 447.09375 642.40625 434.386719 642.40625 L 368.523438 642.40625 C 355.8125 642.40625 345.414062 632.007812 345.414062 619.296875 C 345.414062 606.585938 355.8125 596.1875 368.523438 596.1875 Z M 336.75 503.75 L 428.03125 503.75 C 440.738281 503.75 451.140625 514.148438 451.140625 526.859375 C 451.140625 539.570312 440.738281 549.96875 428.03125 549.96875 L 336.75 549.96875 C 324.039062 549.96875 313.640625 539.570312 313.640625 526.859375 C 313.640625 514.148438 324.039062 503.75 336.75 503.75 Z M 227.558594 919.714844 L 257.597656 919.714844 C 270.308594 919.714844 280.707031 930.117188 280.707031 942.824219 C 280.707031 955.535156 270.308594 965.933594 257.597656 965.933594 L 227.558594 965.933594 C 214.847656 965.933594 204.449219 955.535156 204.449219 942.824219 C 204.449219 930.117188 214.847656 919.714844 227.558594 919.714844 Z M 227.558594 919.714844 " fill-opacity="1" fill-rule="evenodd"/></g><g transform="matrix(1, 0, 0, 1, 1287, 1238)"><g clip-path="url(#a23482da6b)"><g clip-path="url(#82ec0f7d7b)"><g fill="#6366f1" fill-opacity="1"><g transform="translate(0.380547, 1.437642)"><g><path d="M 0.078125 -0.046875 C 0.078125 -0.0664062 0.0820312 -0.0820312 0.09375 -0.09375 C 0.101562 -0.113281 0.113281 -0.125 0.125 -0.125 C 0.144531 -0.125 0.160156 -0.113281 0.171875 -0.09375 C 0.179688 -0.0820312 0.1875 -0.0664062 0.1875 -0.046875 C 0.1875 -0.0234375 0.179688 -0.0078125 0.171875 0 C 0.160156 0.0078125 0.144531 0.015625 0.125 0.015625 C 0.113281 0.015625 0.101562 0.0078125 0.09375 0 C 0.0820312 -0.0078125 0.078125 -0.0234375 0.078125 -0.046875 Z M 0.078125 -0.046875 "/></g></g></g></g></g></g></svg>