<svg xmlns="http://www.w3.org/2000/svg" xmlns:xlink="http://www.w3.org/1999/xlink" width="2000" zoomAndPan="magnify" viewBox="0 0 1500 1499.999933" height="2000" preserveAspectRatio="xMidYMid meet" version="1.0"><defs><g/><clipPath id="6726c7761b"><path d="M 65.375 155.230469 L 1430 155.230469 L 1430 1344.730469 L 65.375 1344.730469 Z M 65.375 155.230469 " clip-rule="nonzero"/></clipPath><clipPath id="33b6e7984b"><path d="M 0.359375 1 L 0.839844 1 L 0.839844 1.839844 L 0.359375 1.839844 Z M 0.359375 1 " clip-rule="nonzero"/></clipPath><clipPath id="06a8328577"><rect x="0" width="1" y="0" height="2"/></clipPath></defs><g clip-path="url(#6726c7761b)"><path fill="#6366f1" d="M 756.453125 699.777344 C 677.53125 893.488281 598.613281 1087.199219 519.691406 1280.914062 C 503.910156 1320.371094 467.320312 1344.765625 424.988281 1344.765625 L 384.09375 1344.765625 C 348.9375 1344.765625 318.089844 1328.265625 298.71875 1298.847656 C 287.238281 1281.628906 281.5 1262.257812 281.5 1242.886719 L 390.550781 1242.886719 C 406.335938 1242.886719 419.25 1229.972656 419.25 1214.191406 C 419.25 1198.40625 406.335938 1185.492188 390.550781 1185.492188 L 246.34375 1185.492188 C 230.558594 1185.492188 217.644531 1172.578125 217.644531 1156.792969 C 217.644531 1141.007812 230.558594 1128.09375 246.34375 1128.09375 L 517.539062 1128.09375 C 533.324219 1128.09375 546.238281 1115.179688 546.238281 1099.398438 C 546.238281 1083.613281 533.324219 1070.699219 517.539062 1070.699219 L 274.324219 1070.699219 C 258.539062 1070.699219 245.625 1057.785156 245.625 1042 C 245.625 1026.21875 258.539062 1013.304688 274.324219 1013.304688 L 361.136719 1013.304688 C 366.875 1013.304688 371.179688 1010.433594 373.332031 1005.410156 L 381.226562 987.476562 C 389.117188 968.105469 407.769531 955.90625 428.578125 955.90625 L 460.144531 955.90625 C 475.929688 955.90625 488.84375 942.992188 488.84375 927.210938 C 488.84375 911.425781 475.929688 898.511719 460.144531 898.511719 L 400.597656 898.511719 C 384.8125 898.511719 371.898438 885.597656 371.898438 869.8125 C 371.898438 854.027344 384.8125 841.113281 400.597656 841.113281 L 558.433594 841.113281 C 574.21875 841.113281 587.132812 828.199219 587.132812 812.417969 C 587.132812 796.632812 574.21875 783.71875 558.433594 783.71875 L 422.121094 783.71875 C 406.335938 783.71875 393.421875 770.804688 393.421875 755.019531 C 393.421875 739.238281 406.335938 726.324219 422.121094 726.324219 L 523.996094 726.324219 C 539.78125 726.324219 552.695312 713.410156 552.695312 697.625 C 552.695312 681.839844 539.78125 668.925781 523.996094 668.925781 L 516.105469 668.925781 C 501.757812 667.492188 490.996094 655.292969 490.996094 640.226562 C 490.996094 624.445312 503.910156 611.53125 519.691406 611.53125 L 770.082031 611.53125 C 785.867188 611.53125 798.78125 598.617188 798.78125 582.832031 C 798.78125 567.046875 785.867188 554.132812 770.082031 554.132812 L 513.234375 554.132812 C 497.453125 554.132812 484.539062 541.21875 484.539062 525.4375 C 484.539062 509.652344 497.453125 496.738281 513.234375 496.738281 L 579.957031 496.738281 C 585.699219 496.738281 590.003906 493.867188 592.15625 488.847656 L 600.046875 470.910156 C 607.9375 451.539062 625.875 439.34375 647.398438 439.34375 L 917.160156 439.34375 C 932.945312 439.34375 945.859375 426.429688 945.859375 410.644531 C 945.859375 396.292969 935.097656 384.097656 920.75 381.945312 C 920.03125 381.945312 918.597656 381.945312 917.878906 381.945312 L 562.023438 381.945312 C 546.238281 381.945312 533.324219 369.03125 533.324219 353.246094 C 533.324219 337.464844 546.238281 324.550781 562.023438 324.550781 L 701.925781 324.550781 C 717.710938 324.550781 730.625 311.636719 730.625 295.851562 C 730.625 281.503906 720.578125 270.023438 706.949219 267.871094 L 655.292969 267.871094 C 639.507812 267.871094 626.59375 254.957031 626.59375 239.171875 C 626.59375 223.390625 639.507812 210.476562 655.292969 210.476562 L 711.253906 210.476562 C 729.1875 176.035156 763.625 155.230469 803.085938 155.230469 L 907.117188 155.230469 C 949.445312 155.230469 985.320312 178.90625 1001.820312 217.648438 L 1420.8125 1201.992188 C 1434.445312 1234.996094 1431.574219 1269.433594 1412.203125 1298.847656 C 1392.832031 1328.265625 1361.980469 1344.765625 1326.824219 1344.765625 L 1278.039062 1344.765625 C 1235.710938 1344.765625 1199.121094 1320.371094 1183.335938 1280.914062 C 1104.417969 1087.199219 1025.496094 893.488281 946.578125 699.777344 C 930.792969 660.316406 894.203125 635.921875 851.875 635.921875 C 808.824219 635.921875 772.234375 660.316406 756.453125 699.777344 Z M 94.242188 841.113281 L 118.636719 841.113281 C 134.421875 841.113281 147.335938 854.027344 147.335938 869.8125 C 147.335938 885.597656 134.421875 898.511719 118.636719 898.511719 L 94.242188 898.511719 C 78.460938 898.511719 65.546875 885.597656 65.546875 869.8125 C 65.546875 854.027344 78.460938 841.113281 94.242188 841.113281 Z M 198.992188 841.113281 L 329.566406 841.113281 C 345.351562 841.113281 358.265625 854.027344 358.265625 869.8125 C 358.265625 885.597656 345.351562 898.511719 329.566406 898.511719 L 198.992188 898.511719 C 183.207031 898.511719 170.292969 885.597656 170.292969 869.8125 C 170.292969 854.027344 183.207031 841.113281 198.992188 841.113281 Z M 300.152344 726.324219 L 345.351562 726.324219 C 361.136719 726.324219 374.050781 739.238281 374.050781 755.019531 C 374.050781 770.804688 361.136719 783.71875 345.351562 783.71875 L 299.433594 783.71875 C 283.652344 783.71875 270.738281 770.804688 270.738281 755.019531 C 271.453125 739.238281 284.367188 726.324219 300.152344 726.324219 Z M 541.214844 210.476562 L 583.546875 210.476562 C 599.328125 210.476562 612.246094 223.390625 612.246094 239.171875 C 612.246094 254.957031 599.328125 267.871094 583.546875 267.871094 L 541.214844 267.871094 C 525.433594 267.871094 512.519531 254.957031 512.519531 239.171875 C 512.519531 223.390625 525.433594 210.476562 541.214844 210.476562 Z M 414.945312 325.265625 L 475.929688 325.265625 C 491.710938 325.265625 504.625 338.179688 504.625 353.964844 C 504.625 369.75 491.710938 382.664062 475.929688 382.664062 L 414.945312 382.664062 C 399.160156 382.664062 386.246094 369.75 386.246094 353.964844 C 386.246094 338.179688 399.160156 325.265625 414.945312 325.265625 Z M 336.742188 611.53125 L 418.53125 611.53125 C 434.316406 611.53125 447.230469 624.445312 447.230469 640.226562 C 447.230469 656.011719 434.316406 668.925781 418.53125 668.925781 L 336.742188 668.925781 C 320.957031 668.925781 308.042969 656.011719 308.042969 640.226562 C 308.042969 624.445312 320.957031 611.53125 336.742188 611.53125 Z M 297.28125 496.738281 L 410.640625 496.738281 C 426.425781 496.738281 439.339844 509.652344 439.339844 525.4375 C 439.339844 541.21875 426.425781 554.132812 410.640625 554.132812 L 297.28125 554.132812 C 281.5 554.132812 268.585938 541.21875 268.585938 525.4375 C 268.585938 509.652344 281.5 496.738281 297.28125 496.738281 Z M 161.683594 1013.304688 L 198.992188 1013.304688 C 214.777344 1013.304688 227.691406 1026.21875 227.691406 1042 C 227.691406 1057.785156 214.777344 1070.699219 198.992188 1070.699219 L 161.683594 1070.699219 C 145.902344 1070.699219 132.988281 1057.785156 132.988281 1042 C 132.988281 1026.21875 145.902344 1013.304688 161.683594 1013.304688 Z M 161.683594 1013.304688 " fill-opacity="1" fill-rule="evenodd"/></g><g transform="matrix(1, 0, 0, 1, 1287, 1238)"><g clip-path="url(#06a8328577)"><g clip-path="url(#33b6e7984b)"><g fill="#6366f1" fill-opacity="1"><g transform="translate(0.380547, 1.437642)"><g><path d="M 0.078125 -0.046875 C 0.078125 -0.0664062 0.0820312 -0.0820312 0.09375 -0.09375 C 0.101562 -0.113281 0.113281 -0.125 0.125 -0.125 C 0.144531 -0.125 0.160156 -0.113281 0.171875 -0.09375 C 0.179688 -0.0820312 0.1875 -0.0664062 0.1875 -0.046875 C 0.1875 -0.0234375 0.179688 -0.0078125 0.171875 0 C 0.160156 0.0078125 0.144531 0.015625 0.125 0.015625 C 0.113281 0.015625 0.101562 0.0078125 0.09375 0 C 0.0820312 -0.0078125 0.078125 -0.0234375 0.078125 -0.046875 Z M 0.078125 -0.046875 "/></g></g></g></g></g></g></svg>